<svg class="icon" width="64" height="64" viewBox="0 0 1024 1024" xmlns="http://www.w3.org/2000/svg"><path d="M26.9 551.5C12.4 551.5.7 539.8.7 525.3s11.7-26.2 26.2-26.2h970.7c14.5 0 26.2 11.7 26.2 26.2s-11.7 26.2-26.2 26.2H26.9zm484.4 251.6c-9.7-10.7-8.8-27.3 1.9-37 10.7-9.7 27.3-8.8 37 1.9l106.6 118c4.8 5.3 12.9 5.7 18.2 1.1l264.4-232.2c10.9-9.5 27.4-8.5 36.9 2.4s8.5 27.4-2.4 36.9L709.5 926.5c-26.8 23.6-67.6 21.2-91.6-5.3L511.3 803.1zM388.7 943h-252c-36.1 0-65.3-29.2-65.3-65.3v-251h52.3v251.1c0 7.2 5.8 13 13 13h252.1V943zm221-861.6h252.1c36.1 0 65.3 29.2 65.3 65.3v251.1h-52.3V146.7c0-7.2-5.8-13-13-13H609.7V81.4zm-221 .5v51.3h-252c-7.4 0-13.5 6-13.5 13.5v251.1H71.9V146.7c0-35.8 29-64.8 64.8-64.8h252z" fill="#2980D0"/></svg>